<?xml version="1.0" encoding="utf-8"?>
<!-- Generator: Adobe Illustrator 24.0.0, SVG Export Plug-In . SVG Version: 6.00 Build 0)  -->
<svg version="1.1" id="Layer_1" xmlns="http://www.w3.org/2000/svg" xmlns:xlink="http://www.w3.org/1999/xlink" x="0px" y="0px"
	 viewBox="0 0 200 55" style="enable-background:new 0 0 200 55;" xml:space="preserve">
<style type="text/css">
	.st0{fill:#FFFFFF;}
	.st1{fill:url(#SVGID_1_);}
	.st2{fill:url(#SVGID_2_);}
	.st3{fill:url(#SVGID_3_);}
	.st4{fill:url(#SVGID_4_);}
	.st5{fill:url(#SVGID_5_);}
</style>
<g>
	<g>
		<path class="st0" d="M197.65,14.22c0.13-0.06,0.23-0.13,0.32-0.22c0.09-0.09,0.16-0.19,0.2-0.31c0.05-0.12,0.07-0.24,0.07-0.37
			c0-0.14-0.03-0.28-0.08-0.4c-0.05-0.13-0.12-0.23-0.22-0.32c-0.09-0.09-0.21-0.16-0.34-0.21c-0.13-0.05-0.28-0.08-0.45-0.08h-0.93
			v3.37h0.29v-3.1h0.6c0.14,0,0.26,0.02,0.36,0.07c0.1,0.05,0.19,0.1,0.26,0.18c0.07,0.07,0.12,0.15,0.15,0.24
			c0.03,0.09,0.05,0.18,0.05,0.27c0,0.09-0.02,0.18-0.05,0.27c-0.03,0.09-0.09,0.17-0.16,0.24c-0.07,0.07-0.17,0.13-0.28,0.18
			c-0.11,0.04-0.25,0.07-0.41,0.07h-0.4l1.29,1.59h0.39l-1.1-1.34C197.38,14.31,197.52,14.27,197.65,14.22z"/>
		<path class="st0" d="M197.08,11.12c-1.61,0-2.92,1.31-2.92,2.92s1.31,2.92,2.92,2.92s2.92-1.31,2.92-2.92
			S198.69,11.12,197.08,11.12z M197.08,16.73c-1.48,0-2.69-1.21-2.69-2.69s1.21-2.69,2.69-2.69c1.48,0,2.69,1.21,2.69,2.69
			S198.56,16.73,197.08,16.73z"/>
	</g>
	<g>
		<path class="st0" d="M52.15,12.96c1.77-0.6,3.53-1.21,5.3-1.81c0,2.13,0,6.25,0,8.38c1.87,0,3.74,0,5.61,0c0.01,1.63,0,3.26,0,4.9
			c-1.87,0-3.75,0-5.62,0c0.03,1.65-0.06,3.3,0.05,4.95c0.26,2.73,2.82,4.98,5.57,4.87c-0.01,1.76,0,3.52,0,5.28
			c-3.51,0.14-6.84-1.81-8.92-4.56c-1.3-1.86-2.02-4.11-1.99-6.38C52.15,24.05,52.15,17.5,52.15,12.96z"/>
		<path class="st0" d="M0.26,19.48c1.77,0,3.53,0,5.3,0c0,0.33,0,0.66-0.01,1c3-1.34,6.69-0.55,9.06,1.68
			c1.45-1.4,3.43-2.28,5.45-2.31c2.76-0.18,5.53,1.17,7.18,3.37c1.14,1.52,1.7,3.43,1.7,5.32c0,3.62,0,7.25,0,10.88
			c-1.76,0-3.53,0-5.29,0c-0.02-3.71,0.02-7.43-0.02-11.14c-0.01-1.54-1.24-2.93-2.77-3.11c-1.82-0.3-3.68,1.26-3.6,3.12
			c-0.02,3.71,0,7.42-0.01,11.13c-1.77,0-3.53,0-5.3,0c-0.01-3.71,0.02-7.42-0.01-11.13c-0.01-1.58-1.31-3.02-2.9-3.14
			c-1.77-0.22-3.52,1.3-3.48,3.1c-0.02,3.72,0.01,7.44-0.01,11.17c-1.76,0-3.53,0-5.29,0C0.25,32.77,0.26,26.13,0.26,19.48z"/>
		<g>
			<path class="st0" d="M31.81,24.98c1.77-3.5,5.78-5.72,9.69-5.33c3.81,0.3,7.29,3,8.52,6.62c0.71,1.88,0.54,3.92,0.56,5.89
				c-4.68,0.01-9.35-0.01-14.03,0.01c1.03,1.51,2.88,2.48,4.72,2.17c1.11-0.1,2.09-0.69,2.86-1.46c1.27,1.17,2.52,2.36,3.77,3.55
				c-1.65,1.62-3.79,2.77-6.11,3.01c-3.34,0.43-6.82-1.02-8.91-3.64C30.44,32.83,29.99,28.38,31.81,24.98z M36.56,26.99
				c2.73,0.02,5.46,0.01,8.19,0.01c-1-1.47-2.76-2.45-4.56-2.24C38.71,24.87,37.39,25.77,36.56,26.99z"/>
		</g>
		<g>
			<path class="st0" d="M84.91,19.72c2.29-0.44,4.74-0.18,6.8,0.96c2.55,1.31,4.43,3.79,5.09,6.56c0.58,2.65,0.16,5.55-1.37,7.81
				c-1.33,2.11-3.51,3.66-5.94,4.25c-2.85,0.75-6.03,0.15-8.41-1.59c-2.74-1.92-4.33-5.31-4.13-8.65
				C77.06,24.61,80.54,20.57,84.91,19.72z M85.8,24.97c-1.65,0.42-3,1.79-3.42,3.44c-0.69,2.52,1.08,5.32,3.63,5.8
				c2.72,0.67,5.64-1.57,5.73-4.36C92.03,26.78,88.77,24.07,85.8,24.97z"/>
		</g>
		<path class="st0" d="M76.54,18.82c-2.21-0.03-4.37,0.7-6.21,1.93v-1.3h-5.32v12.45h0.01c-0.03,2.58,0.02,5.16,0,7.74
			c1.77,0,3.55,0,5.32,0c0.02-3.17-0.02-6.34,0.02-9.52c0.18-3.22,3.08-5.87,6.2-5.87C76.54,22.44,76.55,20.63,76.54,18.82z"/>
	</g>
	<g>
		<g>
			<linearGradient id="SVGID_1_" gradientUnits="userSpaceOnUse" x1="148.4099" y1="11.4418" x2="148.4099" y2="31.8269">
				<stop  offset="0" style="stop-color:#FF0000"/>
				<stop  offset="1" style="stop-color:#E30F65"/>
			</linearGradient>
			<path class="st1" d="M153.12,11c1.74,0.56,3.47,1.16,5.21,1.72c0.01,5.65,0.02,11.31,0,16.97c0.01,2.57-1.07,5.09-2.85,6.92
				c-3.2,3.34-8.79,3.91-12.6,1.28c-2.24-1.47-3.81-3.9-4.26-6.54c-0.42-2.36,0.06-4.88,1.33-6.92c1.54-2.57,4.34-4.33,7.32-4.63
				c2.01-0.25,4.05,0.18,5.85,1.09C153.11,17.59,153.12,14.3,153.12,11z M147.3,25.07c-2.16,0.49-3.77,2.65-3.58,4.86
				c0.1,2.44,2.38,4.52,4.83,4.38c2.63-0.01,4.88-2.57,4.51-5.18C152.84,26.42,149.95,24.34,147.3,25.07z"/>
		</g>
		<g>
			<linearGradient id="SVGID_2_" gradientUnits="userSpaceOnUse" x1="127.2708" y1="11.4418" x2="127.2708" y2="31.8269">
				<stop  offset="0" style="stop-color:#FF0000"/>
				<stop  offset="1" style="stop-color:#E30F65"/>
			</linearGradient>
			<path class="st2" d="M127.19,19.7c2.12-0.02,4.25,0.64,5.94,1.92c2.7,1.92,4.27,5.28,4.04,8.58c-0.18,4.27-3.45,8.21-7.65,9.08
				c-2.69,0.64-5.65,0.1-7.91-1.5c-2.13-1.45-3.65-3.78-4.09-6.33c-0.52-2.63,0.11-5.46,1.69-7.63
				C121,21.27,124.08,19.7,127.19,19.7z M126.16,25.07c-2.16,0.49-3.77,2.68-3.57,4.89c0.11,2.33,2.22,4.33,4.54,4.35
				c2.72,0.16,5.16-2.46,4.8-5.16C131.72,26.42,128.8,24.33,126.16,25.07z"/>
		</g>
		<linearGradient id="SVGID_3_" gradientUnits="userSpaceOnUse" x1="107.7543" y1="11.4418" x2="107.7543" y2="31.8269">
			<stop  offset="0" style="stop-color:#FF0000"/>
			<stop  offset="1" style="stop-color:#E30F65"/>
		</linearGradient>
		<path class="st3" d="M100.41,24.05c1.56-2.32,4.16-3.91,6.94-4.24c3.59-0.5,7.29,1.2,9.39,4.13c-1.43,0.98-2.84,1.99-4.26,2.97
			c-0.73-0.86-1.68-1.59-2.81-1.83c-1.97-0.48-4.2,0.48-5.16,2.28c-1.02,1.77-0.68,4.18,0.79,5.61c1.45,1.5,3.97,1.82,5.74,0.69
			c0.57-0.35,1.02-0.85,1.48-1.34c1.44,0.97,2.86,1.97,4.3,2.94c-1.17,1.6-2.76,2.91-4.62,3.63c-2.76,1.1-6.01,0.86-8.57-0.65
			c-2.4-1.36-4.16-3.78-4.72-6.48C98.35,29.14,98.87,26.27,100.41,24.05z"/>
		<g>
			<linearGradient id="SVGID_4_" gradientUnits="userSpaceOnUse" x1="169.507" y1="11.4418" x2="169.507" y2="31.8269">
				<stop  offset="0" style="stop-color:#FF0000"/>
				<stop  offset="1" style="stop-color:#E30F65"/>
			</linearGradient>
			<path class="st4" d="M161.25,24.31c1.9-2.97,5.47-4.77,8.99-4.47c3.69,0.24,7.11,2.78,8.41,6.25c0.77,1.94,0.7,4.06,0.68,6.1
				c-4.62,0.01-9.24-0.03-13.86,0.02c1.13,1.66,3.27,2.58,5.24,2.03c0.89-0.17,1.55-0.83,2.32-1.25c1.26,1.09,2.42,2.29,3.65,3.41
				c-2.07,2.08-5.03,3.3-7.98,3.01c-4-0.28-7.65-3.28-8.66-7.18C159.3,29.57,159.74,26.61,161.25,24.31z M165.46,27.08
				c2.7,0.04,5.4,0.03,8.1,0.01c-0.85-1.15-2.11-2.08-3.58-2.19C168.2,24.67,166.44,25.61,165.46,27.08z"/>
		</g>
		<linearGradient id="SVGID_5_" gradientUnits="userSpaceOnUse" x1="186.6866" y1="11.4418" x2="186.6866" y2="31.8269">
			<stop  offset="0" style="stop-color:#FF0000"/>
			<stop  offset="1" style="stop-color:#E30F65"/>
		</linearGradient>
		<path class="st5" d="M192.34,18.82c-2.18,0.09-4.39,0.67-6.21,1.93v-1.42h-5.09v11.38c-0.03,2.86,0,5.71-0.01,8.57
			c1.74,0.01,3.48,0.01,5.22,0c0.02-3.04-0.01-6.07,0.01-9.11c0.08-3.24,2.94-6.02,6.08-5.99C192.36,22.39,192.35,20.6,192.34,18.82
			z"/>
	</g>
</g>
</svg>
